<?xml version="1.0" encoding="utf-8"?>
<svg version="1.1" x="0px" y="0px" viewBox="0 0 39.500011 79" id="svg72" width="39.500011" height="79" xmlns="http://www.w3.org/2000/svg">
  <style type="text/css" id="style64">
	.st0{fill:none;stroke:#E72753;stroke-width:2;stroke-miterlimit:10;}
	.st1{fill:none;stroke:#E72753;stroke-miterlimit:10;}
</style>
  <path class="st0" d="m -368.4,51 c -0.1,0.2 -0.3,0.4 -0.5,0.5 -0.5,0.1 -1.6,0.2 -3.2,0.2 -1.6,0 -2.7,-0.1 -3.2,-0.2 -0.3,0 -0.5,-0.2 -0.5,-0.5 v -0.1 c -0.2,-0.8 -0.4,-1.6 -0.4,-2.4 V 34.7 l 1.5,-3.1 1.2,-8.7 -0.1,-0.3 0.1,-0.4 -0.1,-0.2 v -0.7 h 3.3 V 22 l -0.1,0.2 0.1,0.4 -0.1,0.3 1.2,8.8 1.5,3.1 v 13.7 c -0.3,0.8 -0.5,1.7 -0.7,2.5 z" id="path66" style="fill:none;stroke:#e72753;stroke-width:2;stroke-miterlimit:10"/>
  <line class="st1" x1="-403.39999" y1="-100.9" x2="-340.39999" y2="-100.9" id="line68" style="fill:none;stroke:#e72753;stroke-miterlimit:10"/>
  <path d="M 37.000272,32.264659 34.545128,28.976647 C 33.97859,28.245977 33.60088,27.39353 33.411998,26.541082 L 29.634898,8.76146 c 0.188829,-0.365335 0.37771,-0.730669 0.37771,-1.096004 0,-0.243556 0,-0.487113 -0.188881,-0.852448 V 5.96056 5.229891 c 0,-1.826673 -2.266263,-3.4097902 -5.287943,-3.4097902 H 15.65957 c -2.832853,0 -5.287957,1.4613392 -5.287957,3.4097902 V 5.96056 6.813008 c 0,0.243557 -0.188862,0.487113 -0.188862,0.852448 0,0.365335 0.188862,0.852448 0.377709,1.096004 L 6.9722051,26.541082 C 6.7833506,27.39353 6.4056394,28.124199 5.8390696,28.854869 l -2.4551259,3.40979 c -1.321986,1.826674 -2.0774116,3.896904 -2.0774116,5.967133 v 29.348555 c 0,2.313786 0.5665658,4.627573 1.6997014,6.819581 0.7554255,1.33956 2.4551258,2.435564 4.7213919,2.679121 2.2662713,0.243556 6.2322236,0.608891 12.4644646,0.608891 6.232244,0 10.198228,-0.365335 12.464488,-0.608891 2.26626,-0.243557 4.154812,-1.339561 4.910232,-2.679121 1.133176,-2.192008 1.699722,-4.505795 1.699722,-6.819581 V 38.353571 c -0.188836,-2.07023 -0.944261,-4.14046 -2.26626,-6.088912 z M 36.619258,70.7172 c 0,2.07023 0.944302,-1.948452 0,0 -0.188828,0.608891 -3.773798,4.048062 -4.7181,4.169841 -1.88855,0.243556 -5.665653,0.487113 -11.709068,0.487113 -6.04336,0 -9.820477,-0.365335 -11.7090391,-0.487113 C 7.5387708,74.765262 6.7833506,74.399928 6.5944944,73.791037 5.650215,71.842585 4.3635911,70.525849 4.3298805,68.455894 L 3.8273679,37.599803 c -0.027762,-1.704671 -1.1331356,1.583117 0,0 l 4.9085906,-7.900186 c 0,0 1.1331419,-3.075255 1.5108575,-4.049481 L 14.52644,8.274347 c 0,-0.121778 0,-0.121778 -0.188881,-0.121778 -0.188829,0 -0.37771,-0.243557 -0.37771,-0.487113 0,-0.365335 0.566591,-0.974226 0.566591,-1.217783 0,-0.243556 -0.37771,-0.487113 -0.37771,-0.487113 V 5.229891 c 0,-0.487113 0.566539,-0.974226 1.51084,-0.974226 h 8.876214 c 0.75542,0 1.51084,0.365335 1.51084,0.974226 V 5.96056 c 0,0 -0.37771,0.243557 -0.37771,0.487113 0,0.243557 0.566591,0.974227 0.566591,1.217783 0,0.243556 -0.188881,0.365335 -0.37771,0.365335 l -0.188881,0.121778 4.279616,18.000079 c 0.188881,1.096004 2.011701,3.699545 2.767167,4.673771 l 2.706352,3.539269 c 1.13313,1.583117 1.019493,2.53583 0.945952,4.239139 z" id="path70" style="stroke-width:1.51652598"/>
  <text x="3.5175884" y="61.150749" id="text82" style="font-family: &quot;Arial Narrow&quot;; font-size: 37.3333px; font-weight: bold; line-height: 0px; white-space: pre;">11</text>
  <text style="font-style: normal; font-weight: normal; font-size: 40px; line-height: 1.25; font-family: sans-serif; letter-spacing: 0px; word-spacing: 0px; fill: rgb(0, 0, 0); fill-opacity: 1; stroke: none; white-space: pre;" x="12.562815" y="72.467331" id="text86"><tspan id="tspan84" x="12.562815" y="72.467331" style="font-style:normal;font-variant:normal;font-weight:normal;font-stretch:normal;font-size:17.33333397px;font-family:'Arial Narrow';-inkscape-font-specification:'Arial Narrow'">oz</tspan></text>
</svg>