<svg xmlns="http://www.w3.org/2000/svg" xmlns:xlink="http://www.w3.org/1999/xlink" version="1.1" x="0px" y="0px" viewBox="0 0 100 100" enable-background="new 0 0 100 100" xml:space="preserve"><path d="M95.38,40.734c-6.124,0.749-20.878,8.133-22.019,8.708c-16.854-4.46-28.215-3.918-38.38-2.477  c-2.427,0.344-5.801-3.914-16.172-6.403c2.811-0.532,4.54-0.791,10.649-2.07c1.478-0.309,6.231-4.768,9.583-4.721  c3.215,0.045,7.094,5.518,10.196,7.836c2.525,1.889,5.074-2.042,3.776-2.832c-5.627-3.427-10.772-7.098-13.784-7.176  c-12.609-0.322-22.691,4.408-31.452,7.394c-0.161-0.01-0.319-0.021-0.482-0.03c-0.537-0.03-1.765,0.368-2.13,0.876  c-0.297,0.108-0.309,0.244-0.115,0.391c-0.102,1.332-0.237,3.408,0.333,4.327c4.201,6.774,1.605,19.991,15.106,22.588  c13.204,2.539,11.594-15.445,12.934-15.106c1.022,0.259,2.253,0.908,2.62,2.006c2.431,7.276,3.875,18.929,18.575,20.086  c8.942,0.704,12.884,0.376,16.829-16.12c0.52-2.171,0.52-0.566,3.328-3.045c0.085-0.075,0.161-0.175,0.231-0.294  c2.213-0.838,10.265-3.87,16.196-5.867c0.595-0.2,2.974-4.319,2.974-4.319s-0.067,3.336-0.283,5.593  c-0.071,0.745,1.38,0.568,1.486,0C95.801,47.843,96.716,40.571,95.38,40.734z M26.013,64.219  c-3.108,1.706-11.472-1.435-13.501-4.343c-3.375-4.839-3.388-16.663-1.793-16.805c4.372-0.389,13.43,1.982,16.711,5.381  C30.177,51.3,29.482,62.314,26.013,64.219z M62.265,70.827c-3.983,2.548-14.727-0.472-18.409-4.343  c-2.905-3.055-6.042-15.766-2.266-16.71c5.599-1.399,18.409-0.189,22.848,3.305C67.949,55.844,68.025,67.146,62.265,70.827z"></path></svg>