<?xml version="1.0" encoding="utf-8"?>
<svg version="1.1" x="0px" y="0px" viewBox="18.483230590820312 0 64.17682647705078 103.4679946899414" enable-background="new 0 0 100 100" xmlns="http://www.w3.org/2000/svg">
  <path d="M76.181,17.862c-0.021-0.089-0.046-0.172-0.088-0.249c-0.4-1.185-1.064-2.323-1.786-3.5  c-0.432-0.705-0.884-1.441-1.303-2.236c-1.298-2.478-1.292-3.797-1.292-3.839V6.536c0.865-0.248,1.514-1.015,1.514-1.959  c0-1.145-0.929-2.077-2.072-2.077H28.85c-1.143,0-2.073,0.932-2.073,2.077c0,0.944,0.648,1.71,1.514,1.959l0.001,1.531  c0,0.013,0.005,1.333-1.295,3.81c-0.418,0.798-0.873,1.536-1.305,2.241c-0.722,1.177-1.387,2.317-1.784,3.501  c-0.041,0.072-0.064,0.149-0.083,0.233c-0.169,0.561-0.29,1.131-0.29,1.727v70.777c0,0.096,0.015,0.192,0.046,0.287  c0.004,0.015,0.018,0.042,0.025,0.062c0.001,0.004,0.003,0.01,0.005,0.015c0.158,0.414,0.927,1.944,4.248,4.173  c1.804,1.213,2.367,2.135,2.367,2.135c0.162,0.292,0.47,0.472,0.803,0.472h37.944c0.326,0,0.632-0.182,0.798-0.461  c0.006-0.011,0.565-0.932,2.371-2.146c3.315-2.225,4.088-3.754,4.247-4.172c0.001-0.006,0.005-0.012,0.007-0.02  c0.007-0.018,0.021-0.047,0.023-0.059c0.031-0.095,0.047-0.191,0.047-0.287V19.579C76.466,18.987,76.346,18.42,76.181,17.862z   M25.374,89.436V19.579c0-0.201,0.053-0.406,0.086-0.607h49.079c0.033,0.202,0.087,0.406,0.087,0.607v69.856H25.374z M28.85,4.34  h42.304c0.128,0,0.232,0.106,0.232,0.236s-0.102,0.232-0.232,0.232H28.85c-0.131,0-0.233-0.102-0.233-0.232S28.722,4.34,28.85,4.34z   M27.26,15.08c0.453-0.739,0.928-1.514,1.365-2.349c1.539-2.935,1.513-4.561,1.505-4.694V6.648h39.741l0.003,1.347  c-0.01,0.176-0.037,1.802,1.501,4.736c0.437,0.833,0.912,1.606,1.362,2.343c0.443,0.724,0.846,1.4,1.177,2.057H26.088  C26.415,16.477,26.817,15.802,27.26,15.08z M71.116,93.367c-1.432,0.961-2.223,1.796-2.617,2.293H31.502  c-0.394-0.497-1.186-1.332-2.617-2.293c-1.246-0.838-2.067-1.546-2.605-2.091h47.44C73.183,91.821,72.362,92.532,71.116,93.367z"/>
  <text x="0" y="115" fill="#000000" font-size="5px" font-weight="bold" font-family="'Helvetica Neue', Helvetica, Arial-Unicode, Arial, Sans-serif" style="white-space: pre;">Created by Gabriela Muñiz</text>
  <text x="0" y="120" fill="#000000" font-size="5px" font-weight="bold" font-family="'Helvetica Neue', Helvetica, Arial-Unicode, Arial, Sans-serif" style="white-space: pre;">from the Noun Project</text>
  <text x="23.246" y="60.404" style="fill: rgb(51, 51, 51); font-family: sans-serif; font-size: 24px; white-space: pre;"><tspan style="font-size: 32px; word-spacing: 0px;">12</tspan><tspan style="font-size: 4px; word-spacing: 0px;"> </tspan><tspan style="font-size: 12px; word-spacing: 0px;">oz</tspan><tspan style="font-size: 24px; word-spacing: 0px;"> </tspan></text>
</svg>