<?xml version="1.0" encoding="utf-8"?>
<svg version="1.1" x="0px" y="0px" viewBox="37.565162658691406 17.165973663330078 24.43238067626953 65.61512756347656" style="enable-background:new 0 0 100 100;" xmlns="http://www.w3.org/2000/svg">
  <style type="text/css">
	.st0{fill:none;stroke:#E72753;stroke-width:2;stroke-miterlimit:10;}
	.st1{fill:none;stroke:#E72753;stroke-miterlimit:10;}
</style>
  <path class="st0" d="M-368.4,72c-0.1,0.2-0.3,0.4-0.5,0.5c-0.5,0.1-1.6,0.2-3.2,0.2s-2.7-0.1-3.2-0.2c-0.3,0-0.5-0.2-0.5-0.5l0-0.1  c-0.2-0.8-0.4-1.6-0.4-2.4V55.7l1.5-3.1l1.2-8.7l-0.1-0.3l0.1-0.4l-0.1-0.2v-0.7h3.3V43l-0.1,0.2l0.1,0.4l-0.1,0.3l1.2,8.8l1.5,3.1  v13.7C-368,70.3-368.2,71.2-368.4,72L-368.4,72z"/>
  <line class="st1" x1="-403.4" y1="-79.9" x2="-340.4" y2="-79.9"/>
  <path d="M58.9,43.8l-1.3-2.7c-0.3-0.6-0.5-1.3-0.6-2L55,24.5c0.1-0.3,0.2-0.6,0.2-0.9c0-0.2,0-0.4-0.1-0.7l0-0.7v-0.6  c0-1.5-1.2-2.8-2.8-2.8h-4.7c-1.5,0-2.8,1.2-2.8,2.8v0.6v0.7c0,0.2-0.1,0.4-0.1,0.7c0,0.3,0.1,0.7,0.2,0.9L43,39.1  c-0.1,0.7-0.3,1.3-0.6,1.9l-1.3,2.8c-0.7,1.5-1.1,3.2-1.1,4.9v24.1c0,1.9,0.3,3.8,0.9,5.6c0.4,1.1,1.3,2,2.5,2.2  c1.2,0.2,3.3,0.5,6.6,0.5c3.3,0,5.4-0.3,6.6-0.5c1.2-0.2,2.2-1.1,2.6-2.2c0.6-1.8,0.9-3.7,0.9-5.6V48.8C60,47.1,59.6,45.4,58.9,43.8  z M58,72.9c0,1.7-0.3,3.4-0.8,5c-0.1,0.5-0.5,0.8-1,0.9c-1,0.2-3,0.4-6.2,0.4c-3.2,0-5.2-0.3-6.2-0.4c-0.5-0.1-0.9-0.4-1-0.9  c-0.5-1.6-0.8-3.3-0.8-5V48.8c0-1.4,0.3-2.8,0.9-4.1l1.3-2.8c0.4-0.8,0.6-1.7,0.8-2.5l2-15.3c0-0.1,0-0.1-0.1-0.1  c-0.1,0-0.2-0.2-0.2-0.4c0-0.3,0.3-0.8,0.3-1s-0.2-0.4-0.2-0.4v-0.6c0-0.4,0.3-0.8,0.8-0.8h4.7c0.4,0,0.8,0.3,0.8,0.8v0.6  c0,0-0.2,0.2-0.2,0.4c0,0.2,0.3,0.8,0.3,1c0,0.2-0.1,0.3-0.2,0.3c0,0-0.1,0.1-0.1,0.1l2,15.4c0.1,0.9,0.4,1.8,0.8,2.6l1.3,2.7  c0.6,1.3,0.9,2.7,0.9,4.1V72.9z"/>
  <text x="31.098" y="63.38" style="fill: rgb(51, 51, 51); font-family: sans-serif; font-size: 24px; white-space: pre;" transform="matrix(0.600956, 0, 0, 0.62831, 22.660143, 19.80398)"><tspan style="font-size: 24px; word-spacing: 0px;">12</tspan><tspan style="font-size: 2px; word-spacing: 0px;"> </tspan></text>
  <text x="45.767" y="66.8" style="fill: rgb(51, 51, 51); font-family: sans-serif; font-size: 8px; white-space: pre;">oz</text>
</svg>