<?xml version="1.0" encoding="UTF-8" standalone="no"?>
<svg
   xmlns:dc="http://purl.org/dc/elements/1.1/"
   xmlns:cc="http://creativecommons.org/ns#"
   xmlns:rdf="http://www.w3.org/1999/02/22-rdf-syntax-ns#"
   xmlns:svg="http://www.w3.org/2000/svg"
   xmlns="http://www.w3.org/2000/svg"
   xmlns:sodipodi="http://sodipodi.sourceforge.net/DTD/sodipodi-0.dtd"
   xmlns:inkscape="http://www.inkscape.org/namespaces/inkscape"
   version="1.1"
   x="0px"
   y="0px"
   viewBox="0 0 42 79"
   enable-background="new 0 0 100 100"
   xml:space="preserve"
   id="svg279"
   sodipodi:docname="12_oz_can.svg"
   width="42"
   height="79"
   inkscape:version="0.92.2 5c3e80d, 2017-08-06"><metadata
     id="metadata285"><rdf:RDF><cc:Work
         rdf:about=""><dc:format>image/svg+xml</dc:format><dc:type
           rdf:resource="http://purl.org/dc/dcmitype/StillImage" /><dc:title></dc:title></cc:Work></rdf:RDF></metadata><defs
     id="defs283" /><sodipodi:namedview
     pagecolor="#ffffff"
     bordercolor="#666666"
     borderopacity="1"
     objecttolerance="10"
     gridtolerance="10"
     guidetolerance="10"
     inkscape:pageopacity="0"
     inkscape:pageshadow="2"
     inkscape:window-width="945"
     inkscape:window-height="618"
     id="namedview281"
     showgrid="false"
     inkscape:zoom="2.6901514"
     inkscape:cx="50"
     inkscape:cy="62.5"
     inkscape:window-x="0"
     inkscape:window-y="23"
     inkscape:window-maximized="0"
     inkscape:current-layer="svg279" /><path
     d="m 39.604837,15.490223 c -0.01467,-0.06865 -0.03205,-0.132679 -0.06139,-0.192081 -0.279076,-0.91412 -0.742291,-1.791984 -1.245968,-2.699933 C 37.996118,12.054365 37.680797,11.486608 37.388491,10.873338 36.483016,8.9617847 36.487203,7.9442956 36.487203,7.911896 V 6.7532396 c 0.603435,-0.1913103 1.056189,-0.7829817 1.056189,-1.5111918 0,-0.8832634 -0.648086,-1.6022175 -1.445461,-1.6022175 H 6.5860424 c -0.7973732,0 -1.4461547,0.7189541 -1.4461547,1.6022175 0,0.7282101 0.4520538,1.3191101 1.056188,1.5111918 l 6.978e-4,1.1810271 c 0,0.010026 0.00353,1.0282895 -0.9034111,2.9390713 -0.2916031,0.615585 -0.6090169,1.184884 -0.9103867,1.728728 -0.5036779,0.907949 -0.9675917,1.787355 -1.2445451,2.700705 -0.028599,0.05553 -0.044654,0.114938 -0.057901,0.179737 C 2.9626332,15.915269 2.87822,16.354973 2.87822,16.814733 V 71.41278 c 0,0.07405 0.010532,0.148112 0.032097,0.221396 0.00281,0.01156 0.012552,0.0324 0.017442,0.04783 6.97e-4,0.0031 0.00209,0.0077 0.00353,0.01156 0.1102242,0.319364 0.646688,1.49962 2.963466,3.219092 1.258497,0.93572 1.6512542,1.646959 1.6512542,1.646959 0.1130108,0.225251 0.3278783,0.364103 0.5601837,0.364103 H 34.576433 c 0.227421,0 0.440894,-0.140394 0.556695,-0.355617 0.0034,-0.0085 0.394153,-0.718954 1.654046,-1.655445 2.31259,-1.716387 2.851848,-2.895871 2.96277,-3.218321 6.93e-4,-0.0046 0.0027,-0.0092 0.0044,-0.01543 0.0044,-0.01393 0.01467,-0.03626 0.01605,-0.04551 0.02166,-0.07329 0.03284,-0.147339 0.03284,-0.221396 V 16.814733 c 0,-0.456674 -0.08369,-0.894064 -0.198814,-1.32451 z M 4.1611334,70.703084 V 16.814733 c 0,-0.155053 0.03697,-0.313193 0.059994,-0.468246 H 38.45935 c 0.02302,0.155825 0.06069,0.313193 0.06069,0.468246 V 70.702312 H 4.1611334 Z M 6.5860424,5.0592235 H 36.097925 c 0.08927,0 0.161851,0.081768 0.161851,0.1820529 0,0.1002887 -0.07117,0.178967 -0.161851,0.178967 H 6.5860424 c -0.091388,0 -0.162544,-0.078691 -0.162544,-0.178967 0,-0.1002887 0.073251,-0.1820529 0.162544,-0.1820529 z M 5.4768356,13.344162 C 5.7928548,12.77409 6.1242215,12.176247 6.4290789,11.532121 7.5027076,9.2680344 7.4845698,8.0137221 7.4789887,7.9111246 V 6.8396366 H 35.202885 l 0.0016,1.0390884 c -0.0072,0.1357699 -0.02582,1.3900808 1.047115,3.653396 0.304857,0.642585 0.636222,1.238883 0.950155,1.807413 0.309042,0.5585 0.590181,1.079972 0.821086,1.586788 H 4.6592313 C 4.8873506,14.421821 5.1677914,13.90112 5.4768356,13.344162 Z M 36.07142,73.735495 c -0.998986,0.741325 -1.550799,1.385452 -1.82566,1.768841 H 8.4361155 C 8.1612552,75.120947 7.6087448,74.47682 6.6104589,73.735495 5.7412311,73.089053 5.1684891,72.542896 4.7931727,72.122478 H 37.888004 c -0.374617,0.420418 -0.947358,0.968889 -1.816584,1.613017 z"
     id="path273"
     inkscape:connector-curvature="0"
     style="stroke-width:0.73358476" /><text
     xml:space="preserve"
     style="font-style:normal;font-weight:normal;font-size:40px;line-height:1.25;font-family:sans-serif;letter-spacing:0px;word-spacing:0px;fill:#000000;fill-opacity:1;stroke:none"
     x="3.911782"
     y="50.585148"
     id="text289"><tspan
       sodipodi:role="line"
       id="tspan287"
       x="3.911782"
       y="50.585148"
       style="font-style:normal;font-variant:normal;font-weight:normal;font-stretch:normal;font-size:37.33333206px;font-family:'Arial Narrow';-inkscape-font-specification:'Arial Narrow'">12</tspan></text>
<text
     xml:space="preserve"
     style="font-style:normal;font-weight:normal;font-size:21.33333397px;line-height:1.25;font-family:sans-serif;letter-spacing:0px;word-spacing:0px;fill:#000000;fill-opacity:1;stroke:none"
     x="14.39329"
     y="64.448784"
     id="text293"><tspan
       sodipodi:role="line"
       id="tspan291"
       x="14.39329"
       y="64.448784"
       style="font-style:normal;font-variant:normal;font-weight:normal;font-stretch:normal;font-size:17.33333397px;font-family:'Arial Narrow';-inkscape-font-specification:'Arial Narrow'">oz</tspan></text>
</svg>